<?xml version="1.0" encoding="iso-8859-1"?>
<!-- Generator: Adobe Illustrator 19.0.0, SVG Export Plug-In . SVG Version: 6.00 Build 0)  -->
<svg version="1.1" id="Layer_1" xmlns="http://www.w3.org/2000/svg" xmlns:xlink="http://www.w3.org/1999/xlink" x="0px" y="0px"
	 viewBox="0 0 512 512" style="enable-background:new 0 0 512 512;" xml:space="preserve">
<path style="fill:#8CC1EA;" d="M235.053,447.205h268.119v-161.29c0-62.471-50.642-113.113-113.113-113.113l0,0h-77.504h-67.028
	H121.941L235.053,447.205z"/>
<path style="fill:#79B1D6;" d="M121.941,172.802L121.941,172.802c-62.471,0-113.113,50.642-113.113,113.113v161.29h226.225v-161.29
	C235.053,223.444,184.411,172.802,121.941,172.802z"/>
<g>
	<circle style="fill:#F2CA7F;" cx="311.852" cy="336.182" r="33.515"/>
	<rect x="278.341" y="65.975" style="fill:#F2CA7F;" width="92.864" height="60.746"/>
</g>
<path d="M390.059,163.385h-77.505c-4.877,0-8.828,3.953-8.828,8.828s3.951,8.828,8.828,8.828h77.505
	c57.503,0,104.285,46.781,104.285,104.285v152.462h-27.547c-4.877,0-8.828,3.953-8.828,8.828c0,4.875,3.951,8.828,8.828,8.828
	h36.375c4.877,0,8.828-3.953,8.828-8.828V285.325C512,218.087,457.297,163.385,390.059,163.385z"/>
<path d="M431.485,437.788H243.882V285.325c0-44.141-23.575-82.879-58.797-104.285h60.442c4.875,0,8.828-3.953,8.828-8.828
	c0-4.875-3.953-8.828-8.828-8.828H121.941l0,0l0,0C54.702,163.385,0,218.087,0,285.325v92.007c0,4.875,3.953,8.828,8.828,8.828
	s8.828-3.953,8.828-8.828v-92.007c0-57.502,46.783-104.285,104.285-104.285s104.285,46.781,104.285,104.285v152.462H17.656v-25.143
	c0-4.875-3.953-8.828-8.828-8.828S0,407.768,0,412.644v33.971c0,4.875,3.953,8.828,8.828,8.828h422.657
	c4.877,0,8.828-3.953,8.828-8.828C440.313,441.74,436.36,437.788,431.485,437.788z"/>
<path d="M311.86,377.941c23.347,0,42.343-18.994,42.343-42.343s-18.996-42.343-42.343-42.343c-9.208,0-17.731,2.964-24.688,7.973
	V134.958h84.036c4.877,0,8.828-3.953,8.828-8.828V65.384c0-4.875-3.951-8.828-8.828-8.828h-92.864c-4.877,0-8.828,3.953-8.828,8.828
	v270.214C269.516,358.946,288.511,377.941,311.86,377.941z M311.86,310.911c13.612,0,24.687,11.074,24.687,24.687
	s-11.074,24.687-24.687,24.687c-13.613,0-24.688-11.074-24.688-24.687S298.247,310.911,311.86,310.911z M362.379,117.302h-75.208
	v-43.09h75.208V117.302z"/>
<g>
</g>
<g>
</g>
<g>
</g>
<g>
</g>
<g>
</g>
<g>
</g>
<g>
</g>
<g>
</g>
<g>
</g>
<g>
</g>
<g>
</g>
<g>
</g>
<g>
</g>
<g>
</g>
<g>
</g>
</svg>
