<?xml version="1.0" encoding="UTF-8" standalone="no"?>
<svg
   xmlns:dc="http://purl.org/dc/elements/1.1/"
   xmlns:cc="http://creativecommons.org/ns#"
   xmlns:rdf="http://www.w3.org/1999/02/22-rdf-syntax-ns#"
   xmlns:svg="http://www.w3.org/2000/svg"
   xmlns="http://www.w3.org/2000/svg"
   xmlns:sodipodi="http://sodipodi.sourceforge.net/DTD/sodipodi-0.dtd"
   xmlns:inkscape="http://www.inkscape.org/namespaces/inkscape"
   width="200"
   height="32.075001"
   viewBox="0 0 52.916665 8.4865109"
   version="1.1"
   id="svg8"
   inkscape:version="1.0.1 (3bc2e813f5, 2020-09-07)"
   sodipodi:docname="mulligan.svg">
  <defs
     id="defs2">
    <rect
       x="104.23512"
       y="101.29515"
       width="64.946495"
       height="42.228584"
       id="rect948" />
    <rect
       x="80.448128"
       y="103.43331"
       width="66.015572"
       height="71.093697"
       id="rect938" />
  </defs>
  <sodipodi:namedview
     id="base"
     pagecolor="#ffffff"
     bordercolor="#666666"
     borderopacity="1.0"
     inkscape:pageopacity="0.0"
     inkscape:pageshadow="2"
     inkscape:zoom="1.4"
     inkscape:cx="342.07526"
     inkscape:cy="53.213714"
     inkscape:document-units="px"
     inkscape:current-layer="layer1"
     inkscape:document-rotation="0"
     showgrid="false"
     inkscape:window-width="1920"
     inkscape:window-height="1051"
     inkscape:window-x="-9"
     inkscape:window-y="-9"
     inkscape:window-maximized="1"
     units="px" />
  <metadata
     id="metadata5">
    <rdf:RDF>
      <cc:Work
         rdf:about="">
        <dc:format>image/svg+xml</dc:format>
        <dc:type
           rdf:resource="http://purl.org/dc/dcmitype/StillImage" />
        <dc:title></dc:title>
      </cc:Work>
    </rdf:RDF>
  </metadata>
  <g
     inkscape:label="Layer 1"
     inkscape:groupmode="layer"
     id="layer1">
    <g
       aria-label="MULLIGAN"
       id="text835"
       style="font-style:normal;font-weight:normal;font-size:10.5833px;line-height:1.25;font-family:sans-serif;fill:#000000;fill-opacity:1;stroke:none;stroke-width:0.264583"
       transform="scale(1.0583333)">
      <path
         id="path970"
         style="font-style:normal;font-variant:normal;font-weight:normal;font-stretch:normal;font-family:'Showcard Gothic';-inkscape-font-specification:'Showcard Gothic';fill:#ffffff;stroke-width:0.257484;stroke-miterlimit:4;stroke-dasharray:none"
         d="m 34.806178,0 c -1.268659,0 -2.29129,0.34311006 -3.067887,1.0293229 -0.826805,0.7297295 -1.240208,1.7439953 -1.240208,3.0427781 0,1.3556891 0.471986,2.3766504 1.415945,3.0628628 0.800026,0.5757505 1.839395,0.8636284 3.118098,0.8636284 0.860271,0 1.514695,-0.065272 1.963246,-0.1958227 0.03013,-0.6460442 0.06198,-1.2050634 0.09542,-1.6770444 0.067,-0.7899798 0.117154,-1.3272406 0.15063,-1.6117682 H 35.11248 c 0.07031,0.475327 0.115487,0.8167651 0.13557,1.0243034 L 35.3284,6.5474982 C 34.889871,6.5608856 34.503246,6.4470747 34.168505,6.2060628 33.77017,5.9215347 33.570996,5.5181717 33.570996,4.9959808 c 0,-0.5523169 0.23432,-1.0075638 0.70295,-1.3657349 0.418426,-0.3180009 0.887063,-0.477003 1.405908,-0.477003 0.408384,0 0.723033,0.041839 0.943964,0.1255272 L 36.347653,0.11046404 C 35.798683,0.03682157 35.284854,0 34.806178,0 Z M 0,0.10042173 C 0.12385099,1.6000485 0.20920991,2.8754125 0.25607523,3.926491 c 0.06695,1.8243228 0.11213995,3.11977 0.13556941,3.8863199 H 2.199236 L 2.2494461,5.4679646 4.1624802,7.9985922 5.9349236,5.447878 5.9851346,7.8128109 H 7.8027693 C 7.826199,6.3801313 7.8613469,5.0913779 7.908213,3.9465747 7.9985893,2.0854303 8.0672116,0.80337193 8.1140769,0.10042173 H 5.4830266 C 5.2687946,0.60252892 5.093056,0.98580753 4.9558131,1.2502508 4.5708647,1.9632431 4.3064189,2.4335545 4.1624813,2.6611761 3.8377858,2.1322902 3.5817081,1.6736948 3.3942549,1.2853984 3.1498956,0.73977525 2.9775043,0.34478081 2.8770828,0.10042173 Z m 8.485637,0 C 8.509069,1.0176046 8.570994,2.0318705 8.6714184,3.1432005 c 0.1037675,1.2017087 0.2142318,2.0285209 0.3313909,2.4804179 0.2008434,0.7866328 0.5439548,1.3657357 1.0293277,1.7372953 0.572399,0.438506 1.407577,0.6577611 2.505516,0.6577611 0.890409,0 1.764081,-0.1539799 2.621008,-0.4619385 0,-1.8778792 0.01678,-3.2804473 0.05022,-4.2076711 l 0.11548,-3.24864347 h -2.480414 c 0.09038,1.33895287 0.152301,2.38501877 0.18578,3.13817927 0.04017,1.5029742 0.06026,2.5992521 0.06026,3.2888114 -0.14394,0.066948 -0.274488,0.100423 -0.391649,0.100423 -0.411723,0 -0.68621,-0.1439386 -0.82346,-0.4318139 C 11.744353,5.9248844 11.677406,5.4010133 11.67404,4.6244219 11.65726,3.6034704 11.653954,2.8151543 11.663992,2.2594893 c 0.02339,-0.9975196 0.04349,-1.71721317 0.06026,-2.15906757 z m 7.250455,0 c 0.113806,1.62682747 0.192473,2.90219147 0.235989,3.82606927 0.067,1.8042364 0.108786,3.0996867 0.125524,3.8863199 h 4.544086 c 0.03343,-0.2912198 0.0736,-0.5456234 0.120506,-0.7632055 0.09039,-0.3715595 0.152305,-0.6242869 0.18578,-0.7581843 -0.234317,0.053561 -0.418427,0.087035 -0.552319,0.1004231 -0.649397,0.070291 -1.13644,0.1054437 -1.461136,0.1054437 l 0.2862,-6.39686617 z m 5.447875,0 c 0.113809,1.62682747 0.192476,2.90219147 0.235992,3.82606927 0.067,1.8042364 0.108788,3.0996867 0.125527,3.8863199 h 4.544081 c 0.03343,-0.2912198 0.0736,-0.5456234 0.120507,-0.7632055 0.09039,-0.3715595 0.152304,-0.6242869 0.18578,-0.7581843 -0.234318,0.053561 -0.418423,0.087035 -0.552321,0.1004231 -0.649388,0.070291 -1.13644,0.1054437 -1.461133,0.1054437 l 0.286201,-6.39686617 z m 5.447879,0 0.341431,7.71238917 h 2.816833 c 0.05022,-1.523058 0.0937,-2.7264531 0.130551,-3.6101622 L 30.11648,0.10042173 Z m 12.266513,0 C 38.714255,1.2418785 38.484958,2.4486213 38.210471,3.7206254 37.761923,5.6219366 37.430528,6.9860091 37.216297,7.8128109 h 1.456115 l 0.271139,-0.9690696 c 0.10712,0.2175796 0.189132,0.3866248 0.246034,0.507131 l 0.286204,0.6075513 c 0.241009,-0.2108852 0.460265,-0.3799305 0.657761,-0.507131 0.307957,-0.1740612 0.500434,-0.2761577 0.577422,-0.3062849 l 0.185783,0.6678032 H 43.64329 C 43.234907,6.1223833 42.915237,4.7750495 42.684263,3.7708367 42.265834,1.8494398 42.009761,0.62596103 41.916034,0.10042173 Z m 4.930712,0 c 0.08708,1.05107787 0.172387,2.33983127 0.256077,3.86623847 0.09713,1.8845734 0.159003,3.1666326 0.185775,3.8461507 h 1.616797 l 0.05022,-2.661176 c 0.769898,0.5422769 1.349003,0.9489868 1.737307,1.2201239 0.897088,0.6828673 1.564904,1.1966951 2.003412,1.541475 C 49.71209,6.303144 49.75399,4.8788203 49.804186,3.6402883 49.887837,1.9565557 49.953137,0.77659291 50,0.10042173 h -1.862821 c 0.03013,0.33808597 0.05022,0.60922608 0.06026,0.81341629 0.01334,0.23096928 0.02009,0.54897318 0.02009,0.95400638 L 46.349662,0.10042173 Z M 39.777052,4.3884302 c 0.177409,0.3882956 0.309638,0.692909 0.39667,0.9138388 0.143935,0.398337 0.244357,0.6862143 0.301258,0.8636253 -0.25105,0.073647 -0.483696,0.1255268 -0.697928,0.155654 -0.354817,0.040173 -0.582443,0.060251 -0.682864,0.060251 0.123849,-0.4385076 0.23097,-0.7849638 0.321346,-1.0393648 0.164021,-0.4418559 0.284528,-0.7598576 0.361518,-0.9540043 z" />
    </g>
    <text
       xml:space="preserve"
       style="font-style:normal;font-weight:normal;font-size:10.5833px;line-height:1.25;font-family:sans-serif;fill:#000000;fill-opacity:1;stroke:none;stroke-width:0.264583"
       x="18.29777"
       y="53.817081"
       id="text839-0"><tspan
         sodipodi:role="line"
         id="tspan837-5"
         x="18.29777"
         y="53.817081"
         style="stroke-width:0.264583" /><tspan
         sodipodi:role="line"
         x="18.29777"
         y="67.046204"
         style="stroke-width:0.264583"
         id="tspan841-9" /></text>
    <text
       xml:space="preserve"
       style="font-style:normal;font-weight:normal;font-size:10.5833px;line-height:1.25;font-family:sans-serif;fill:#000000;fill-opacity:1;stroke:none;stroke-width:0.264583"
       x="21.715651"
       y="63.342876"
       id="text886"><tspan
         sodipodi:role="line"
         id="tspan884"
         x="21.715651"
         y="63.342876"
         style="stroke-width:0.264583"></tspan></text>
    <text
       xml:space="preserve"
       id="text936"
       style="font-style:normal;font-weight:normal;font-size:10.5833px;line-height:1.25;font-family:sans-serif;white-space:pre;shape-inside:url(#rect938);fill:#000000;fill-opacity:1;stroke:none;" />
    <text
       xml:space="preserve"
       id="text946"
       style="font-style:normal;font-weight:normal;font-size:10.5833px;line-height:1.25;font-family:sans-serif;white-space:pre;shape-inside:url(#rect948);fill:#000000;fill-opacity:1;stroke:none;" />
  </g>
</svg>
