<?xml version="1.0" encoding="utf-8"?><!-- Uploaded to: SVG Repo, www.svgrepo.com, Generator: SVG Repo Mixer Tools -->
<svg width="800px" height="800px" viewBox="0 0 24 24" fill="none" xmlns="http://www.w3.org/2000/svg">
<path d="M12 21.59C4.47 21.59 2.78 8.35003 2.72 7.79003C2.7058 7.68452 2.71453 7.5772 2.74559 7.47538C2.77666 7.37356 2.82932 7.27964 2.9 7.20003C2.97478 7.13027 3.06303 7.07655 3.15933 7.04216C3.25563 7.00776 3.35795 6.99343 3.46 7.00003C5.59 7.00003 6.58 3.67003 6.59 3.63003C6.63685 3.47507 6.73196 3.33912 6.86147 3.24199C6.99098 3.14486 7.14812 3.09162 7.31 3.09003H16.69C16.8519 3.09162 17.009 3.14486 17.1385 3.24199C17.268 3.33912 17.3631 3.47507 17.41 3.63003C17.41 3.63003 18.41 7.00003 20.54 7.00003C20.6457 6.99989 20.7502 7.02209 20.8467 7.06517C20.9432 7.10826 21.0295 7.17125 21.1 7.25003C21.1707 7.32964 21.2233 7.42356 21.2544 7.52538C21.2855 7.6272 21.2942 7.73452 21.28 7.84003C21.22 8.35003 19.53 21.59 12 21.59ZM4.32 8.35003C4.77 11 6.69 20.09 12 20.09C17.31 20.09 19.23 11 19.68 8.35003C17.68 7.84003 16.56 5.64003 16.15 4.59003H7.85C7.44 5.64003 6.35 7.84003 4.32 8.35003Z" fill="#000000"/>
</svg>