<?xml version="1.0" encoding="utf-8"?><!-- Uploaded to: SVG Repo, www.svgrepo.com, Generator: SVG Repo Mixer Tools -->
<svg width="800px" height="800px" viewBox="0 0 24 24" fill="none" xmlns="http://www.w3.org/2000/svg">
<path d="M12 21.75C10.0716 21.75 8.18657 21.1782 6.58319 20.1068C4.97981 19.0355 3.73013 17.5127 2.99217 15.7312C2.25422 13.9496 2.06113 11.9892 2.43734 10.0979C2.81355 8.20655 3.74214 6.46927 5.10571 5.10571C6.46927 3.74214 8.20655 2.81355 10.0979 2.43734C11.9892 2.06113 13.9496 2.25422 15.7312 2.99217C17.5127 3.73013 19.0355 4.97981 20.1068 6.58319C21.1782 8.18657 21.75 10.0716 21.75 12C21.7473 14.585 20.7193 17.0635 18.8914 18.8914C17.0635 20.7193 14.585 21.7473 12 21.75ZM12 3.75C10.3683 3.75 8.77325 4.23385 7.41654 5.14037C6.05984 6.04689 5.00241 7.33537 4.37799 8.84286C3.75357 10.3503 3.59019 12.0091 3.90852 13.6095C4.22685 15.2098 5.01258 16.6798 6.16637 17.8336C7.32015 18.9874 8.79016 19.7731 10.3905 20.0915C11.9908 20.4098 13.6496 20.2464 15.1571 19.622C16.6646 18.9976 17.9531 17.9402 18.8596 16.5835C19.7661 15.2267 20.25 13.6317 20.25 12C20.2474 9.81277 19.3773 7.71589 17.8307 6.16929C16.2841 4.62269 14.1872 3.75264 12 3.75Z" fill="#000000"/>
<path d="M12 9.25C11.8019 9.24741 11.6126 9.16756 11.4725 9.02747C11.3324 8.88737 11.2526 8.69811 11.25 8.5V3.5C11.25 3.30109 11.329 3.11032 11.4697 2.96967C11.6103 2.82902 11.8011 2.75 12 2.75C12.1989 2.75 12.3897 2.82902 12.5303 2.96967C12.671 3.11032 12.75 3.30109 12.75 3.5V8.5C12.7474 8.69811 12.6676 8.88737 12.5275 9.02747C12.3874 9.16756 12.1981 9.24741 12 9.25Z" fill="#000000"/>
<path d="M12 21.25C11.8019 21.2474 11.6126 21.1676 11.4725 21.0275C11.3324 20.8874 11.2526 20.6981 11.25 20.5V15.5C11.25 15.3011 11.329 15.1103 11.4697 14.9697C11.6103 14.829 11.8011 14.75 12 14.75C12.1989 14.75 12.3897 14.829 12.5303 14.9697C12.671 15.1103 12.75 15.3011 12.75 15.5V20.5C12.7474 20.6981 12.6676 20.8874 12.5275 21.0275C12.3874 21.1676 12.1981 21.2474 12 21.25Z" fill="#000000"/>
<path d="M8.5 12.75H3.5C3.30109 12.75 3.11032 12.671 2.96967 12.5303C2.82902 12.3897 2.75 12.1989 2.75 12C2.75 11.8011 2.82902 11.6103 2.96967 11.4697C3.11032 11.329 3.30109 11.25 3.5 11.25H8.5C8.69891 11.25 8.88968 11.329 9.03033 11.4697C9.17098 11.6103 9.25 11.8011 9.25 12C9.25 12.1989 9.17098 12.3897 9.03033 12.5303C8.88968 12.671 8.69891 12.75 8.5 12.75Z" fill="#000000"/>
<path d="M20.5 12.75H15.5C15.3011 12.75 15.1103 12.671 14.9697 12.5303C14.829 12.3897 14.75 12.1989 14.75 12C14.75 11.8011 14.829 11.6103 14.9697 11.4697C15.1103 11.329 15.3011 11.25 15.5 11.25H20.5C20.6989 11.25 20.8897 11.329 21.0303 11.4697C21.171 11.6103 21.25 11.8011 21.25 12C21.25 12.1989 21.171 12.3897 21.0303 12.5303C20.8897 12.671 20.6989 12.75 20.5 12.75Z" fill="#000000"/>
</svg>