<?xml version="1.0" encoding="utf-8"?><!-- Uploaded to: SVG Repo, www.svgrepo.com, Generator: SVG Repo Mixer Tools -->
<svg width="800px" height="800px" viewBox="0 0 24 24" fill="none" xmlns="http://www.w3.org/2000/svg">
<path d="M12 21.67C11.8785 21.6733 11.758 21.6458 11.65 21.59C11.34 21.42 3.93001 17.49 2.38001 12.19C1.49001 9.19 1.79001 6.26 3.18001 4.4C3.68804 3.72873 4.35061 3.19002 5.11141 2.82964C5.87222 2.46926 6.70878 2.29786 7.55001 2.33C8.45302 2.28577 9.35012 2.49801 10.1376 2.94218C10.9251 3.38634 11.5707 4.04431 12 4.84C12.4293 4.04431 13.075 3.38634 13.8624 2.94218C14.6499 2.49801 15.547 2.28577 16.45 2.33C17.2912 2.29786 18.1278 2.46926 18.8886 2.82964C19.6494 3.19002 20.312 3.72873 20.82 4.4C22.21 6.26 22.51 9.17 21.62 12.19C20.07 17.49 12.62 21.42 12.35 21.59C12.242 21.6458 12.1216 21.6733 12 21.67ZM7.55001 3.83C6.94176 3.79757 6.33482 3.91459 5.78222 4.17084C5.22963 4.42709 4.7482 4.81477 4.38001 5.3C3.27001 6.78 3.06001 9.2 3.82001 11.77C5.02001 15.86 10.55 19.24 12 20.07C13.45 19.24 19 15.85 20.18 11.77C20.94 9.2 20.73 6.77 19.62 5.3C19.2518 4.81477 18.7704 4.42709 18.2178 4.17084C17.6652 3.91459 17.0583 3.79757 16.45 3.83C12.94 3.83 12.76 7.36 12.75 7.51C12.75 7.70891 12.671 7.89968 12.5303 8.04033C12.3897 8.18098 12.1989 8.26 12 8.26C11.8011 8.26 11.6103 8.18098 11.4697 8.04033C11.329 7.89968 11.25 7.70891 11.25 7.51C11.23 7.14 11 3.83 7.55001 3.83Z" fill="#000000"/>
</svg>