<?xml version="1.0" encoding="utf-8"?><!-- Uploaded to: SVG Repo, www.svgrepo.com, Generator: SVG Repo Mixer Tools -->
<svg width="800px" height="800px" viewBox="0 0 24 24" fill="none" xmlns="http://www.w3.org/2000/svg">
<path d="M16.41 18.14C16.2829 18.1382 16.1581 18.1054 16.0466 18.0444C15.935 17.9834 15.8401 17.8961 15.77 17.79C15.6765 17.6247 15.6482 17.4304 15.6908 17.2453C15.7333 17.0602 15.8437 16.8978 16 16.79C17.3422 15.926 18.3685 14.6507 18.9255 13.1548C19.4825 11.6589 19.5402 10.0229 19.0899 8.49147C18.6396 6.96008 17.7056 5.61564 16.4276 4.65931C15.1495 3.70297 13.5962 3.18614 12 3.18614C10.4038 3.18614 8.85047 3.70297 7.57245 4.65931C6.29443 5.61564 5.36041 6.96008 4.91013 8.49147C4.45985 10.0229 4.51751 11.6589 5.07449 13.1548C5.63147 14.6507 6.65782 15.926 8 16.79C8.11279 16.9139 8.18082 17.0721 8.19324 17.2392C8.20567 17.4063 8.16177 17.5728 8.06855 17.712C7.97533 17.8513 7.83817 17.9553 7.67893 18.0075C7.5197 18.0597 7.34757 18.057 7.19 18C5.57496 16.9609 4.33981 15.4269 3.66937 13.6273C2.99892 11.8277 2.92923 9.85941 3.47073 8.01692C4.01223 6.17444 5.13579 4.55683 6.6733 3.40617C8.21081 2.2555 10.0796 1.63364 12 1.63364C13.9204 1.63364 15.7892 2.2555 17.3267 3.40617C18.8642 4.55683 19.9878 6.17444 20.5293 8.01692C21.0708 9.85941 21.0011 11.8277 20.3306 13.6273C19.6602 15.4269 18.425 16.9609 16.81 18C16.6929 18.0842 16.554 18.1328 16.41 18.14Z" fill="#000000"/>
<path d="M16.41 22.37H7.59C7.39109 22.37 7.20033 22.291 7.05967 22.1503C6.91902 22.0097 6.84 21.8189 6.84 21.62V17.39C6.84 17.1911 6.91902 17.0003 7.05967 16.8597C7.20033 16.719 7.39109 16.64 7.59 16.64C7.78892 16.64 7.97968 16.719 8.12033 16.8597C8.26099 17.0003 8.34 17.1911 8.34 17.39V20.87H15.66V17.39C15.66 17.1911 15.739 17.0003 15.8797 16.8597C16.0203 16.719 16.2111 16.64 16.41 16.64C16.6089 16.64 16.7997 16.719 16.9403 16.8597C17.081 17.0003 17.16 17.1911 17.16 17.39V21.62C17.16 21.8189 17.081 22.0097 16.9403 22.1503C16.7997 22.291 16.6089 22.37 16.41 22.37Z" fill="#000000"/>
<path d="M9.16 14.55C8.96109 14.55 8.77033 14.471 8.62967 14.3303C8.48902 14.1897 8.41 13.9989 8.41 13.8V10.2C8.41 10.0011 8.48902 9.81033 8.62967 9.66968C8.77033 9.52903 8.96109 9.45001 9.16 9.45001C9.35892 9.45001 9.54968 9.52903 9.69033 9.66968C9.83099 9.81033 9.91 10.0011 9.91 10.2V13.8C9.90741 13.9981 9.82756 14.1874 9.68747 14.3275C9.54737 14.4676 9.35811 14.5474 9.16 14.55Z" fill="#000000"/>
<path d="M14.56 14.55C14.3619 14.5474 14.1726 14.4676 14.0325 14.3275C13.8924 14.1874 13.8126 13.9981 13.81 13.8V10.2C13.81 10.0011 13.889 9.81033 14.0297 9.66968C14.1703 9.52903 14.3611 9.45001 14.56 9.45001C14.7589 9.45001 14.9497 9.52903 15.0903 9.66968C15.231 9.81033 15.31 10.0011 15.31 10.2V13.8C15.31 13.9989 15.231 14.1897 15.0903 14.3303C14.9497 14.471 14.7589 14.55 14.56 14.55Z" fill="#000000"/>
<path d="M10.58 22.39C10.3819 22.3874 10.1926 22.3076 10.0525 22.1675C9.91244 22.0274 9.83259 21.8381 9.83 21.64V19.51C9.83 19.3111 9.90902 19.1203 10.0497 18.9797C10.1903 18.839 10.3811 18.76 10.58 18.76C10.7789 18.76 10.9697 18.839 11.1103 18.9797C11.251 19.1203 11.33 19.3111 11.33 19.51V21.64C11.33 21.8389 11.251 22.0297 11.1103 22.1703C10.9697 22.311 10.7789 22.39 10.58 22.39Z" fill="#000000"/>
<path d="M13.42 22.39C13.2211 22.39 13.0303 22.311 12.8897 22.1703C12.749 22.0297 12.67 21.8389 12.67 21.64V19.51C12.67 19.3111 12.749 19.1203 12.8897 18.9797C13.0303 18.839 13.2211 18.76 13.42 18.76C13.6189 18.76 13.8097 18.839 13.9503 18.9797C14.091 19.1203 14.17 19.3111 14.17 19.51V21.64C14.1674 21.8381 14.0876 22.0274 13.9475 22.1675C13.8074 22.3076 13.6181 22.3874 13.42 22.39Z" fill="#000000"/>
</svg>